<mxfile host="app.diagrams.net" agent="Mozilla/5.0 (Windows NT 10.0; Win64; x64; rv:135.0) Gecko/20100101 Firefox/135.0" version="26.0.16">
  <diagram name="Страница — 1" id="ybX_hd4ql1OFdtfCMsI8">
    <mxGraphModel dx="882" dy="611" grid="1" gridSize="10" guides="1" tooltips="1" connect="1" arrows="1" fold="1" page="1" pageScale="1" pageWidth="827" pageHeight="1169" math="0" shadow="0">
      <root>
        <mxCell id="0" />
        <mxCell id="1" parent="0" />
        <mxCell id="PPZw-L5G0OnH8Ku80zF--69" value="" style="rounded=0;whiteSpace=wrap;html=1;movable=0;resizable=0;rotatable=0;deletable=0;editable=0;locked=1;connectable=0;" vertex="1" parent="1">
          <mxGeometry width="400" height="560" as="geometry" />
        </mxCell>
        <mxCell id="PPZw-L5G0OnH8Ku80zF--2" value="&lt;b&gt;Пользователь&lt;/b&gt;" style="text;html=1;align=center;verticalAlign=middle;resizable=0;points=[];autosize=1;strokeColor=none;fillColor=none;" vertex="1" parent="1">
          <mxGeometry x="45" width="110" height="30" as="geometry" />
        </mxCell>
        <mxCell id="PPZw-L5G0OnH8Ku80zF--4" value="" style="endArrow=none;dashed=1;html=1;rounded=0;entryX=0.5;entryY=0;entryDx=0;entryDy=0;" edge="1" parent="1">
          <mxGeometry width="50" height="50" relative="1" as="geometry">
            <mxPoint x="200" y="560" as="sourcePoint" />
            <mxPoint x="199.99999999999977" as="targetPoint" />
          </mxGeometry>
        </mxCell>
        <mxCell id="PPZw-L5G0OnH8Ku80zF--5" value="" style="ellipse;fillColor=strokeColor;html=1;" vertex="1" parent="1">
          <mxGeometry x="90" y="40" width="20" height="20" as="geometry" />
        </mxCell>
        <mxCell id="PPZw-L5G0OnH8Ku80zF--6" value="" style="endArrow=open;endFill=1;endSize=12;html=1;rounded=0;entryX=0.5;entryY=0;entryDx=0;entryDy=0;" edge="1" parent="1" source="PPZw-L5G0OnH8Ku80zF--5" target="PPZw-L5G0OnH8Ku80zF--7">
          <mxGeometry width="160" relative="1" as="geometry">
            <mxPoint x="120" y="70" as="sourcePoint" />
            <mxPoint x="100" y="100" as="targetPoint" />
          </mxGeometry>
        </mxCell>
        <mxCell id="PPZw-L5G0OnH8Ku80zF--7" value="&lt;br&gt;&lt;div&gt;Вводит&lt;/div&gt;&lt;div&gt;email и пароль&lt;/div&gt;" style="html=1;align=center;verticalAlign=top;rounded=1;absoluteArcSize=1;arcSize=10;dashed=0;whiteSpace=wrap;" vertex="1" parent="1">
          <mxGeometry x="30" y="80" width="140" height="80" as="geometry" />
        </mxCell>
        <mxCell id="PPZw-L5G0OnH8Ku80zF--17" value="Сервис" style="text;html=1;align=center;verticalAlign=middle;resizable=0;points=[];autosize=1;strokeColor=none;fillColor=none;fontStyle=1" vertex="1" parent="1">
          <mxGeometry x="270" width="60" height="30" as="geometry" />
        </mxCell>
        <mxCell id="PPZw-L5G0OnH8Ku80zF--30" value="" style="endArrow=open;endFill=1;endSize=12;html=1;rounded=0;entryX=0;entryY=0.5;entryDx=0;entryDy=0;exitX=0.5;exitY=1;exitDx=0;exitDy=0;" edge="1" parent="1" source="PPZw-L5G0OnH8Ku80zF--7" target="PPZw-L5G0OnH8Ku80zF--31">
          <mxGeometry width="160" relative="1" as="geometry">
            <mxPoint x="110" y="70" as="sourcePoint" />
            <mxPoint x="230" y="115" as="targetPoint" />
            <Array as="points">
              <mxPoint x="100" y="185" />
            </Array>
          </mxGeometry>
        </mxCell>
        <mxCell id="PPZw-L5G0OnH8Ku80zF--34" value="&lt;div&gt;[Данные&lt;/div&gt;&lt;div&gt;введены&lt;/div&gt;&lt;div&gt;корректно?]&lt;/div&gt;" style="edgeLabel;html=1;align=center;verticalAlign=middle;resizable=0;points=[];" vertex="1" connectable="0" parent="PPZw-L5G0OnH8Ku80zF--30">
          <mxGeometry x="-0.2373" y="-2" relative="1" as="geometry">
            <mxPoint x="5" y="-2" as="offset" />
          </mxGeometry>
        </mxCell>
        <mxCell id="PPZw-L5G0OnH8Ku80zF--31" value="" style="rhombus;" vertex="1" parent="1">
          <mxGeometry x="285" y="170" width="30" height="30" as="geometry" />
        </mxCell>
        <mxCell id="PPZw-L5G0OnH8Ku80zF--35" value="" style="endArrow=open;endFill=1;endSize=12;html=1;rounded=0;entryX=1;entryY=0.75;entryDx=0;entryDy=0;exitX=0.5;exitY=0;exitDx=0;exitDy=0;" edge="1" parent="1" source="PPZw-L5G0OnH8Ku80zF--31" target="PPZw-L5G0OnH8Ku80zF--7">
          <mxGeometry width="160" relative="1" as="geometry">
            <mxPoint x="110" y="140" as="sourcePoint" />
            <mxPoint x="295" y="195" as="targetPoint" />
            <Array as="points">
              <mxPoint x="300" y="140" />
            </Array>
          </mxGeometry>
        </mxCell>
        <mxCell id="PPZw-L5G0OnH8Ku80zF--36" value="[Нет]" style="edgeLabel;html=1;align=center;verticalAlign=middle;resizable=0;points=[];" vertex="1" connectable="0" parent="PPZw-L5G0OnH8Ku80zF--35">
          <mxGeometry x="-0.2373" y="-2" relative="1" as="geometry">
            <mxPoint x="12" y="2" as="offset" />
          </mxGeometry>
        </mxCell>
        <mxCell id="PPZw-L5G0OnH8Ku80zF--37" value="Нажимает на «Войти»" style="html=1;align=center;verticalAlign=top;rounded=1;absoluteArcSize=1;arcSize=10;dashed=0;whiteSpace=wrap;" vertex="1" parent="1">
          <mxGeometry x="30" y="250" width="140" height="30" as="geometry" />
        </mxCell>
        <mxCell id="PPZw-L5G0OnH8Ku80zF--38" value="" style="endArrow=open;endFill=1;endSize=12;html=1;rounded=0;entryX=1;entryY=0.5;entryDx=0;entryDy=0;exitX=0.5;exitY=1;exitDx=0;exitDy=0;" edge="1" parent="1" source="PPZw-L5G0OnH8Ku80zF--31" target="PPZw-L5G0OnH8Ku80zF--37">
          <mxGeometry width="160" relative="1" as="geometry">
            <mxPoint x="310" y="180" as="sourcePoint" />
            <mxPoint x="180" y="125" as="targetPoint" />
            <Array as="points">
              <mxPoint x="300" y="265" />
            </Array>
          </mxGeometry>
        </mxCell>
        <mxCell id="PPZw-L5G0OnH8Ku80zF--39" value="[Да]" style="edgeLabel;html=1;align=center;verticalAlign=middle;resizable=0;points=[];" vertex="1" connectable="0" parent="PPZw-L5G0OnH8Ku80zF--38">
          <mxGeometry x="-0.2373" y="-2" relative="1" as="geometry">
            <mxPoint x="-11" y="2" as="offset" />
          </mxGeometry>
        </mxCell>
        <mxCell id="PPZw-L5G0OnH8Ku80zF--47" value="" style="endArrow=open;endFill=1;endSize=12;html=1;rounded=0;entryX=0;entryY=0.5;entryDx=0;entryDy=0;exitX=0.5;exitY=1;exitDx=0;exitDy=0;" edge="1" parent="1" target="PPZw-L5G0OnH8Ku80zF--49">
          <mxGeometry width="160" relative="1" as="geometry">
            <mxPoint x="100" y="280" as="sourcePoint" />
            <mxPoint x="230" y="265" as="targetPoint" />
            <Array as="points">
              <mxPoint x="100" y="335" />
            </Array>
          </mxGeometry>
        </mxCell>
        <mxCell id="PPZw-L5G0OnH8Ku80zF--48" value="&lt;div&gt;[Пользователь&lt;/div&gt;&lt;div&gt;с такими данными&lt;/div&gt;&lt;div&gt;есть в БД?]&lt;/div&gt;" style="edgeLabel;html=1;align=center;verticalAlign=middle;resizable=0;points=[];" vertex="1" connectable="0" parent="PPZw-L5G0OnH8Ku80zF--47">
          <mxGeometry x="-0.2373" y="-2" relative="1" as="geometry">
            <mxPoint x="14" y="-2" as="offset" />
          </mxGeometry>
        </mxCell>
        <mxCell id="PPZw-L5G0OnH8Ku80zF--49" value="" style="rhombus;" vertex="1" parent="1">
          <mxGeometry x="285" y="320" width="30" height="30" as="geometry" />
        </mxCell>
        <mxCell id="PPZw-L5G0OnH8Ku80zF--50" value="" style="endArrow=open;endFill=1;endSize=12;html=1;rounded=0;entryX=1;entryY=0.5;entryDx=0;entryDy=0;exitX=1;exitY=0.5;exitDx=0;exitDy=0;" edge="1" parent="1" source="PPZw-L5G0OnH8Ku80zF--49" target="PPZw-L5G0OnH8Ku80zF--7">
          <mxGeometry width="160" relative="1" as="geometry">
            <mxPoint x="380" y="335" as="sourcePoint" />
            <mxPoint x="250" y="280" as="targetPoint" />
            <Array as="points">
              <mxPoint x="340" y="335" />
              <mxPoint x="340" y="120" />
            </Array>
          </mxGeometry>
        </mxCell>
        <mxCell id="PPZw-L5G0OnH8Ku80zF--51" value="[Нет]" style="edgeLabel;html=1;align=center;verticalAlign=middle;resizable=0;points=[];" vertex="1" connectable="0" parent="PPZw-L5G0OnH8Ku80zF--50">
          <mxGeometry x="-0.2373" y="-2" relative="1" as="geometry">
            <mxPoint x="-2" y="104" as="offset" />
          </mxGeometry>
        </mxCell>
        <mxCell id="PPZw-L5G0OnH8Ku80zF--54" value="" style="endArrow=open;endFill=1;endSize=12;html=1;rounded=0;exitX=0.5;exitY=1;exitDx=0;exitDy=0;entryX=0.5;entryY=0;entryDx=0;entryDy=0;" edge="1" parent="1" source="PPZw-L5G0OnH8Ku80zF--49" target="PPZw-L5G0OnH8Ku80zF--57">
          <mxGeometry width="160" relative="1" as="geometry">
            <mxPoint x="290" y="390" as="sourcePoint" />
            <mxPoint x="300" y="400" as="targetPoint" />
            <Array as="points" />
          </mxGeometry>
        </mxCell>
        <mxCell id="PPZw-L5G0OnH8Ku80zF--55" value="[Да]" style="edgeLabel;html=1;align=center;verticalAlign=middle;resizable=0;points=[];" vertex="1" connectable="0" parent="PPZw-L5G0OnH8Ku80zF--54">
          <mxGeometry x="-0.2373" y="-2" relative="1" as="geometry">
            <mxPoint x="2" y="-22" as="offset" />
          </mxGeometry>
        </mxCell>
        <mxCell id="PPZw-L5G0OnH8Ku80zF--57" value="" style="rhombus;" vertex="1" parent="1">
          <mxGeometry x="285" y="450" width="30" height="30" as="geometry" />
        </mxCell>
        <mxCell id="PPZw-L5G0OnH8Ku80zF--59" value="&lt;div&gt;[Пользователь&lt;/div&gt;&lt;div&gt;заблокирован?]&lt;/div&gt;" style="edgeLabel;html=1;align=center;verticalAlign=middle;resizable=0;points=[];" vertex="1" connectable="0" parent="1">
          <mxGeometry x="295" y="380.1428571428572" as="geometry">
            <mxPoint x="6" y="24" as="offset" />
          </mxGeometry>
        </mxCell>
        <mxCell id="PPZw-L5G0OnH8Ku80zF--61" value="" style="endArrow=open;endFill=1;endSize=12;html=1;rounded=0;entryX=1;entryY=0.25;entryDx=0;entryDy=0;exitX=1;exitY=0.5;exitDx=0;exitDy=0;" edge="1" parent="1" source="PPZw-L5G0OnH8Ku80zF--57" target="PPZw-L5G0OnH8Ku80zF--7">
          <mxGeometry width="160" relative="1" as="geometry">
            <mxPoint x="325" y="345" as="sourcePoint" />
            <mxPoint x="180" y="130" as="targetPoint" />
            <Array as="points">
              <mxPoint x="370" y="465" />
              <mxPoint x="370" y="290" />
              <mxPoint x="370" y="100" />
            </Array>
          </mxGeometry>
        </mxCell>
        <mxCell id="PPZw-L5G0OnH8Ku80zF--62" value="[Да]" style="edgeLabel;html=1;align=center;verticalAlign=middle;resizable=0;points=[];" vertex="1" connectable="0" parent="PPZw-L5G0OnH8Ku80zF--61">
          <mxGeometry x="-0.2373" y="-2" relative="1" as="geometry">
            <mxPoint x="-2" y="104" as="offset" />
          </mxGeometry>
        </mxCell>
        <mxCell id="PPZw-L5G0OnH8Ku80zF--63" value="&lt;div&gt;Переходит на страницу&lt;/div&gt;&lt;div&gt;просмотра своего&lt;/div&gt;&lt;div&gt;профиля&lt;/div&gt;" style="html=1;align=center;verticalAlign=top;rounded=1;absoluteArcSize=1;arcSize=10;dashed=0;whiteSpace=wrap;" vertex="1" parent="1">
          <mxGeometry x="30" y="435" width="140" height="60" as="geometry" />
        </mxCell>
        <mxCell id="PPZw-L5G0OnH8Ku80zF--64" value="" style="endArrow=open;endFill=1;endSize=12;html=1;rounded=0;exitX=0;exitY=0.5;exitDx=0;exitDy=0;entryX=1;entryY=0.5;entryDx=0;entryDy=0;" edge="1" parent="1" source="PPZw-L5G0OnH8Ku80zF--57" target="PPZw-L5G0OnH8Ku80zF--63">
          <mxGeometry width="160" relative="1" as="geometry">
            <mxPoint x="210" y="480" as="sourcePoint" />
            <mxPoint x="210" y="580" as="targetPoint" />
            <Array as="points" />
          </mxGeometry>
        </mxCell>
        <mxCell id="PPZw-L5G0OnH8Ku80zF--65" value="[Нет]" style="edgeLabel;html=1;align=center;verticalAlign=middle;resizable=0;points=[];" vertex="1" connectable="0" parent="PPZw-L5G0OnH8Ku80zF--64">
          <mxGeometry x="-0.2373" y="-2" relative="1" as="geometry">
            <mxPoint x="18" as="offset" />
          </mxGeometry>
        </mxCell>
        <mxCell id="PPZw-L5G0OnH8Ku80zF--66" value="" style="ellipse;html=1;shape=endState;fillColor=strokeColor;" vertex="1" parent="1">
          <mxGeometry x="90" y="530" width="20" height="20" as="geometry" />
        </mxCell>
        <mxCell id="PPZw-L5G0OnH8Ku80zF--67" value="" style="endArrow=open;endFill=1;endSize=12;html=1;rounded=0;exitX=0.5;exitY=1;exitDx=0;exitDy=0;entryX=0.5;entryY=0;entryDx=0;entryDy=0;" edge="1" parent="1" source="PPZw-L5G0OnH8Ku80zF--63" target="PPZw-L5G0OnH8Ku80zF--66">
          <mxGeometry width="160" relative="1" as="geometry">
            <mxPoint x="99.52000000000001" y="630" as="sourcePoint" />
            <mxPoint x="100" y="530" as="targetPoint" />
            <Array as="points" />
          </mxGeometry>
        </mxCell>
      </root>
    </mxGraphModel>
  </diagram>
</mxfile>
